<?xml version="1.0" encoding="UTF-8"?>
<svg version="1.1" viewBox="0 0 2048 620" width="1090" height="330" xmlns="http://www.w3.org/2000/svg">
<path transform="translate(122,7)" d="m0 0h1806l20 1 18 4 17 7 11 7 10 8 11 11 7 10 6 10 6 15 3 12 1 7 1 39-1 379-3 16-8 20-7 11-8 10-11 11-10 7-11 6-14 6-18 4-15 1h-1818l-16-1-17-4-15-6-15-9-13-12-10-11-9-15-6-15-4-17-1-13v-396l2-19 5-17 8-16 10-14 13-13 13-9 16-8 13-4 10-2z"/>
<path transform="translate(422,193)" d="m0 0h14l17 3 14 5 16 9 13 12 7 8-1 3-13 10-10 11-8 13-6 16-2 10v22l3 14 5 13 7 12 9 11 10 8 14 8 2 1-1 6-8 20-12 23-12 18-9 11-10 10-10 7-10 5-10 2h-8l-14-3-24-9-10-2h-21l-15 4-24 9-5 1h-17l-9-4-11-7-12-11-9-11-11-15-13-23-9-20-7-19-6-22-4-24v-36l3-17 5-17 8-17 8-11 9-10 10-9 13-8 13-5 14-3h22l16 4 27 10 4 1h12l20-7 16-6z" fill="#FEFEFE"/>
<path transform="translate(912,334)" d="m0 0h19l14 4 11 7 10 10 8 14 5 14 2 11v26l-3 15-6 15-7 11-7 8-10 7-11 5-16 3h-10l-14-3-11-6-7-6-2-3-1 73h-32l-1-169-1-33h29l1 18 1 4 6-8 9-8 14-7z" fill="#FEFEFE"/>
<path transform="translate(1078,334)" d="m0 0h19l11 3 10 5 10 9 6 7 8 16 4 13 1 6v28l-4 17-5 12-7 11-8 9-10 7-13 5-13 2h-10l-14-3-11-6-6-5-3-5-1 74h-32l-1-176-1-26h29l1 16 1 6 7-9 8-7 12-6z" fill="#FEFEFE"/>
<path transform="translate(1521,333)" d="m0 0h14l15 3 12 5 10 7 8 7 9 13 5 12 3 11 1 7v21l-4 18-8 16-7 9-8 8-14 8-11 4-10 2h-20l-16-4-13-7-11-9-9-12-7-16-3-15v-22l4-18 5-12 9-13 7-7 14-9 10-4z" fill="#FEFEFE"/>
<path transform="translate(711,281)" d="m0 0h40l3 8 18 55 16 50 16 49 11 34v4h-34l-15-48-3-10h-65l-17 55-2 3h-32l1-5 20-62 22-68 20-62z" fill="#FEFEFE"/>
<path transform="translate(1775,334)" d="m0 0h21l15 4 10 6 9 8 7 11 5 13 3 15v24l-1 1h-96l4 18 5 9 5 6 8 5 8 3 6 1h23l20-4 6-1 4 19v3l-15 5-16 3-11 1h-12l-14-2-13-4-12-7-12-12-8-14-5-16-1-7v-23l3-15 6-15 9-14 8-8 11-7 10-4z" fill="#FEFEFE"/>
<path transform="translate(1272,278)" d="m0 0h16l16 2 16 5 5 2-2 9-5 16-2 1-18-6-12-2h-13l-12 3-9 5-6 9-1 4v9l3 9 5 6 11 7 17 8 14 6 13 8 13 11 7 11 4 12 1 7v10l-3 15-6 12-9 10-10 7-14 6-14 3-10 1h-13l-18-2-17-5-9-5-1-3 7-23 5 1 11 5 16 4 9 1h10l14-3 8-4 5-4 4-7 2-9-1-11-5-10-9-8-17-8-17-7-13-7-10-8-8-9-6-12-2-8v-15l3-12 5-10 11-12 13-8 15-5z" fill="#FEFEFE"/>
<path transform="translate(1400,301)" d="m0 0h3v36h36v23l-35 1v72l2 13 4 7 5 3 4 1h9l8-1 1 1v23l-5 2-15 2h-11l-12-3-8-5-7-8-5-12-2-14v-82l-10 1h-11v-24h21v-27z" fill="#FEFEFE"/>
<path transform="translate(676,111)" d="m0 0h31l12 3 10 5 8 7 6 10 3 11 1 13-2 14-4 11-6 9-8 7-13 6-14 3h-28l-6-2v-95z" fill="#FEFEFE"/>
<path transform="translate(1526,357)" d="m0 0 13 2 10 6 7 8 6 12 3 14v19l-3 15-6 12-8 9-12 6-3 1h-12l-9-3-8-6-7-8-5-11-3-15v-18l4-16 5-10 9-10 12-6z"/>
<path transform="translate(905,359)" d="m0 0h12l11 4 8 6 6 8 5 12 2 9 1 13-2 14-4 12-7 11-9 7-10 4h-15l-11-4-9-8-5-10-2-8v-37l3-11 6-11 8-7 7-3z"/>
<path transform="translate(1071,359)" d="m0 0h12l11 4 8 6 6 9 5 12 2 10v17l-4 17-6 11-8 8-10 5-4 1h-14l-11-4-8-7-6-11-2-8v-37l4-13 6-10 9-7z"/>
<path transform="translate(1686,334)" d="m0 0h15l1 1v29l-18 1-10 4-5 4-6 10-3 9-1 5-1 84h-32l-1-144h28l2 26 7-13 6-7 11-7z" fill="#FEFEFE"/>
<path transform="translate(1320,106)" d="m0 0h16v104h-13l-1-1-1-9-5 5-8 5-5 1h-10l-8-3-7-5-6-10-3-9v-18l4-12 6-9 8-6 6-2h13l9 4 4 4z" fill="#FEFEFE"/>
<path transform="translate(1432,137)" d="m0 0h9l13 4 10 9 4 6 3 11v13l-2 9-6 10-8 7-8 4-5 1h-13l-9-3-9-7-6-9-3-11v-13l4-13 6-8 8-6 7-3z" fill="#FEFEFE"/>
<path transform="translate(1132,137)" d="m0 0h8l9 2 10 6 6 7 5 12v19l-4 11-6 8-9 6-9 3h-14l-10-4-8-7-4-5-4-10-1-13 2-11 5-10 5-6 10-6z" fill="#FEFEFE"/>
<path transform="translate(796,137)" d="m0 0h8l9 2 10 6 6 7 4 8 1 4v19l-4 11-6 8-9 6-9 3h-14l-12-5-8-8-5-10-2-11 1-12 4-11 7-9 10-6z" fill="#FEFEFE"/>
<path transform="translate(428,101)" d="m0 0h6v17l-3 14-6 15-8 12-9 10-8 7-14 8-12 4-6 1h-11v-13l3-15 6-15 8-12 12-13 14-10 13-6z" fill="#FEFEFE"/>
<path transform="translate(851,138)" d="m0 0h15l4 16 8 36v3h2l2-10 12-41 2-4h12l7 24 7 27v4h2l2-11 11-43 1-1h14l-2 10-16 52-3 9-1 1h-13l-3-5-12-44-1-2-12 43-2 7-3 1h-12l-4-10-17-58z" fill="#FEFEFE"/>
<path transform="translate(684,123)" d="m0 0h17l11 3 9 5 6 9 3 10v17l-3 11-4 7-5 5-8 5-6 2-8 1h-10l-5-1v-73z"/>
<path transform="translate(1210,137)" d="m0 0h15l11 4 6 7 3 8 1 35 1 18-7 1h-6l-2-3v-5l-8 6-8 3h-11l-10-5-5-7-1-3v-12l4-8 8-7 11-4 6-1h12l-2-9-4-5-3-1h-12l-12 4-3-8v-3l11-4z" fill="#FEFEFE"/>
<path transform="translate(1795,137)" d="m0 0h13l10 4 7 7 4 8 2 7v14l-1 1h-47l3 10 5 6 7 3h19l8-1 2 7v4l-13 3h-20l-10-4-8-6-5-8-3-11v-11l3-12 6-10 8-7z" fill="#FEFEFE"/>
<path transform="translate(1684,106)" d="m0 0h15l1 2-1 40h2l2-4 8-6 4-1h11l8 3 7 8 4 11v50l-3 1h-12l-1-47-3-8-4-3-3-1h-8l-6 3-4 6-1 6-1 44h-14l-1-1z" fill="#FEFEFE"/>
<path transform="translate(1525,137)" d="m0 0h12l7 3 6 5 5 11 1 6v47l-1 1h-14l-1-1-1-49-4-6-6-3h-7l-6 3-4 5-1 3-1 47-1 1h-14l-1-1v-71h14l1 10 7-7z" fill="#FEFEFE"/>
<path transform="translate(1e3 137)" d="m0 0h11l8 3 7 8 4 10v51l-1 1h-14l-1-47-3-8-4-3-3-1h-8l-6 3-4 6-1 13v36l-1 1h-14l-1-1-1-71h14l2 9 8-7z" fill="#FEFEFE"/>
<path transform="translate(729,311)" d="m0 0h2l18 58 8 26v3h-53l1-7 19-63z"/>
<path transform="translate(1779,355)" d="m0 0h8l11 3 8 6 5 8 3 10 1 12h-66l-1-3 4-13 6-11 9-8 7-3z"/>
<path transform="translate(1642,121)" d="m0 0h3v17h16l1 1v11h-17l1 42 3 4 8 1 4 1v11l-7 2h-10l-7-3-5-6-3-9v-43h-10l-1-11 1-1h10v-12l7-3z" fill="#FEFEFE"/>
<path transform="translate(1062,106)" d="m0 0h16v103l-1 1h-14l-1-1z" fill="#FEFEFE"/>
<path transform="translate(1130,149)" d="m0 0h11l6 4 4 5 3 9v13l-3 10-6 7-6 3h-7l-6-3-6-7-3-9v-13l4-11 4-5z"/>
<path transform="translate(794,149)" d="m0 0h11l6 4 4 5 3 9v13l-3 10-6 7-6 3h-7l-6-3-6-7-3-10v-12l4-11 4-5z"/>
<path transform="translate(1431,149)" d="m0 0h11l6 4 5 8 2 11-2 15-6 9-8 4-9-1-6-4-4-6-2-6v-17l4-10 7-6z"/>
<path transform="translate(1301,149)" d="m0 0 9 1 5 3 5 10v21l-3 7-4 5-4 2h-11l-7-4-5-8-2-7v-10l3-9 4-6 6-4z"/>
<path transform="translate(1220,174)" d="m0 0h11v13l-3 7-5 4-6 2-7-1-5-5-1-8 3-6 5-4z"/>
<path transform="translate(1795,148)" d="m0 0h10l6 3 4 6 1 3v7h-33l2-9 4-6z"/>
</svg>
