<?xml version="1.0" encoding="UTF-8"?>
<svg version="1.1" viewBox="0 0 2048 620" width="1090" height="330" xmlns="http://www.w3.org/2000/svg">
<path transform="translate(120,9)" d="m0 0h1812l17 1 17 4 15 6 15 9 13 12 9 10 7 11 7 14 4 13 2 12 1 39-1 379-3 15-5 14-6 12-10 14-13 13-15 10-15 7-13 4-11 2h-1847l-18-4-17-7-11-7-10-8-11-11-9-13-8-16-5-17-2-19v-396l2-19 5-17 8-16 9-13 15-15 15-10 13-6 12-4 11-2z"/>
<path transform="translate(187,207)" d="m0 0h9l16 8 30 16 23 13 32 17 23 13 30 16 22 12 25 14 32 17 21 12 6 5 3 6-1 7-5 7-14 8-29 16-52 28-22 12-50 27-23 13-23 12-22 12-19 10-4 1h-7l-7-3-4-6-2-8v-264l1-9 5-8z" fill="#BDF3AA"/>
<path transform="translate(1106,319)" d="m0 0h17l13 4 11 7 2 3 1-10h28v131l-3 15-5 13-7 10-8 8-11 6-12 4-5 1h-24l-16-5-11-7-6-5-8-10-6-12 23-10 4 1 6 10 7 6 9 4 5 1h10l12-3 8-6 4-5 4-10 1-6v-16l-9 8-12 5-5 1h-17l-11-3-10-4-12-9-7-7-9-14-5-15-1-4v-20l4-15 8-15 11-12 11-8 12-5z" fill="#F9F9F9"/>
<path transform="translate(641,245)" d="m0 0h16l17 3 15 5 13 7 14 10 3 3-2 4-17 17-4-2-11-8-11-5-16-4h-17l-15 3-16 7-10 8-5 5-7 8-8 16-4 16v22l4 16 7 14 9 11 9 8 17 9 17 4h21l14-3 12-5 10-7 7-7 7-12 4-13 2-7h-67v-29h95l1 7v25l-3 16-6 15-7 12-11 13-13 10-16 8-13 4-16 3h-23l-19-4-15-6-14-8-9-7-9-8-11-14-10-19-4-13-2-11v-26l4-18 7-16 8-13 11-13 9-8 10-7 15-8 15-5z" fill="#F9F9F9"/>
<path transform="translate(1440,255)" d="m0 0h76l15 3 16 8 11 10 7 11 4 11 1 5v23l-4 13-6 11-8 9-10 7-12 5-16 3h-44v75h-30z" fill="#F9F9F9"/>
<path transform="translate(814,319)" d="m0 0h20l13 3 14 7 10 8 8 9 6 10 5 15 1 6v17l-3 14-8 16-9 10-8 7-14 7-16 4h-19l-15-4-12-6-9-7-7-7-7-11-5-13-2-10v-17l4-16 8-15 11-12 14-9 14-5z" fill="#F9F9F9"/>
<path transform="translate(960,319)" d="m0 0h19l16 4 12 6 11 9 8 10 8 16 3 15v14l-3 14-5 12-8 11-7 7-12 8-13 5-10 2h-19l-15-4-14-7-12-11-7-9-6-13-3-12v-20l4-15 6-12 8-10 10-9 16-8z" fill="#F9F9F9"/>
<path transform="translate(1698,310)" d="m0 0h22l16 4 12 6 10 9 6 8 5 11 2 7 1 9v85h-30l-1-17-9 11-11 7-10 3-13 1-12-2-14-6-9-7-8-9-5-12-1-5v-13l2-9 4-8 9-10 11-7 15-5 18-2 16 1 12 3 6 3-4-12-4-6-6-5-9-4-6-1h-9l-9 2-10 6-5 7-6-2-19-9-1-3 7-10 10-9 14-7z" fill="#F9F9F9"/>
<path transform="translate(1300,319)" d="m0 0h18l12 3 13 7 13 13 9 15 4 10v2l-38 16-41 17-9 3 6 9 7 6 10 4h17l11-4 10-9 2-3 4 1 20 13-2 4-7 8-10 8-12 6-16 4h-18l-13-3-16-8-12-11-6-8-6-12-4-17v-15l3-14 5-12 7-11 10-10 14-8 9-3z" fill="#F9F9F9"/>
<path transform="translate(1810,317)" d="m0 0h6l5 10 33 77 5-11 25-63 5-12 1-1h21l13 1-1 5-19 43-20 46-18 41-17 39-7 16-1 1h-33l2-6 19-40 8-17-1-7-18-40-18-41-13-29-4-9v-2z" fill="#F9F9F9"/>
<path transform="translate(187,207)" d="m0 0h9l16 8 20 11-4 1-11-1-5 2 3 7 18 18 7 8 32 32 7 8 19 19 7 8v3l-8 4-1 1-27-1-35-4-5-1h-35l-4-1-1 4h-2l-2 5-4 2-3-3-2 2-1-111 1-9 5-8z" fill="#44AEC1"/>
<path transform="translate(333,359)" d="m0 0 4 1 47 47-5 4-34 18-22 12-26 14-23 13-25 13-18 10-26 14-10 4h-7v-3l7-8 86-86 1-2h2v-2l5-5h2l2-4z" fill="#909191"/>
<path transform="translate(381,308)" d="m0 0 16 8 32 17 21 12 6 5 3 6-1 7-5 7-14 8-29 16-24 13-4-1-34-34v-2l-4-2-10-10 30-30 7-8 4-2 2-4 3-3z" fill="#D8D8D6"/>
<path transform="translate(1200,253)" d="m0 0h30v195h-30z" fill="#F8F8F8"/>
<path transform="translate(1596,255)" d="m0 0h29v194h-29z" fill="#FCFCFC"/>
<path transform="translate(967,345)" d="m0 0 12 1 10 4 8 6 7 11 3 11v15l-4 12-7 10-10 7-8 3h-16l-10-4-8-6-7-9-4-11-1-11 2-11 4-10 10-11 9-5z"/>
<path transform="translate(822,345)" d="m0 0 11 1 10 4 8 6 6 9 3 8 1 4v17l-4 11-6 9-9 7-10 4h-16l-10-4-9-7-6-9-4-11v-17l4-11 6-9 8-7 10-4z"/>
<path transform="translate(1115,345)" d="m0 0 11 1 9 4 8 7 6 10 3 10v17l-3 10-6 10-8 7-10 4h-16l-10-4-9-7-7-12-2-7-1-10 2-13 6-12 5-6 9-6 6-2z"/>
<path transform="translate(1470,284)" d="m0 0h45l10 4 8 7 5 8 2 7v10l-4 11-6 7-8 5-7 2h-45z"/>
<path transform="translate(978,100)" d="m0 0 11 1 12 6 7 7 5 10 2 10-1 11-4 10-7 8-5 4-10 4h-15l-10-4-8-7-5-7-3-9v-15l4-11 6-8 6-5 9-4z"/>
<path transform="translate(1040,92)" d="m0 0h14l7 10 14 23 15 24 6 10 1-67h11v89h-12l-11-17-14-23-15-24-4-7-1 71h-11l-1-88z" fill="#F8F8F7"/>
<path transform="translate(589,90)" d="m0 0h19l10 3 11 7 1 5-7 6-8-6-8-3-11-1-9 2-10 6-6 7-4 8-2 8v9l3 10 6 9 7 6 10 4h16l10-4 6-4 5-8 3-10h-32l-1-1v-9l1-1h43l1 5-2 16-6 12-4 5-9 6-10 4-4 1h-19l-14-5-9-7-6-7-5-10-2-7v-19l4-12 6-9 8-8 14-7z" fill="#F3F3F2"/>
<path transform="translate(971,90)" d="m0 0h19l11 4 9 6 8 8 6 12 2 7v18l-3 10-6 10-5 6-11 7-12 4h-18l-11-4-8-5-7-6-6-9-4-11-1-7v-8l3-13 6-11 10-10 14-7zm7 10-9 2-9 5-8 9-4 9-1 4v15l4 11 9 10 9 5 4 1h15l10-4 8-7 4-5 4-10 1-11-2-10-5-10-7-7-12-6z" fill="#F3F3F3"/>
<path transform="translate(656,92)" d="m0 0h52l1 2-1 8-1 1h-39v28h37v10l-1 1h-36v27h40l1 2-1 10h-51l-1-1z" fill="#EDEDED"/>
<path transform="translate(1703,385)" d="m0 0h22l13 4 4 3-1 7-7 11-8 7-12 6-5 1h-10l-10-3-7-6-2-6 1-9 4-6 8-6z"/>
<path transform="translate(841,92)" d="m0 0h61v10l-1 1h-23v77l-1 1h-11v-78h-24l-1-1z" fill="#F4F4F4"/>
<path transform="translate(718,92)" d="m0 0h61v10l-1 1h-24v78h-11l-1-64 1-14h-24l-1-1z" fill="#F8F8F8"/>
<path transform="translate(1304,345)" d="m0 0h13l10 4 7 7 1 3-36 15-22 9h-2l1-10 4-10 8-10 10-6z"/>
<path transform="translate(818,92)" d="m0 0h11l1 1v87l-1 1h-11z" fill="#F5F5F5"/>
</svg>
